<svg width="28" height="28" viewBox="0 0 28 28" xmlns="http://www.w3.org/2000/svg">
<path d="M24.2426 6.1032L21.8957 3.75622C21.5543 3.41478 21.0008 3.41457 20.6591 3.75573L17.2792 7.13057C16.9888 7.42059 16.9458 7.86352 17.1484 8.20001L14.195 11.1542C12.4385 10.172 10.4888 10.1669 9.2993 11.3554C8.83466 11.8208 8.54736 12.4129 8.43677 13.0743C7.06196 13.0197 5.77673 13.4706 4.8406 14.4069C2.7819 16.4646 3.154 20.0596 5.54474 22.4505C7.93412 24.841 11.5291 25.2129 13.5871 23.1547C14.5232 22.2186 14.9741 20.9328 14.9196 19.5577C15.5813 19.4473 16.1733 19.1601 16.6381 18.6952C17.8274 17.5059 17.8223 15.5561 16.8403 13.799L19.7937 10.8455C20.1297 11.048 20.5721 11.0054 20.8622 10.7157L24.2422 7.34084C24.5842 6.99923 24.5844 6.44501 24.2426 6.1032ZM15.1081 13.057C14.8051 13.36 14.7662 13.8377 15.016 14.1857C15.9339 15.4644 16.0344 16.8246 15.4011 17.458C15.0941 17.765 14.6179 17.9065 14.0199 17.8464C13.4288 17.7871 12.9517 18.3217 13.0777 18.9023C13.3369 20.0971 13.071 21.1966 12.3501 21.9175C11.0384 23.2292 8.53821 22.9706 6.78191 21.2135C5.02425 19.4557 4.76544 16.9555 6.07748 15.6441C6.7986 14.9229 7.89718 14.6571 9.09187 14.9162C9.67247 15.0421 10.207 14.5651 10.1476 13.9739C10.0877 13.3767 10.2295 12.8999 10.5366 12.5922C11.1696 11.9598 12.53 12.0603 13.8079 12.9785C14.156 13.2286 14.6339 13.1896 14.9369 12.8866L18.3666 9.45598L18.4522 9.54159L18.5378 9.62721L15.1081 13.057ZM20.2446 8.85997L19.6919 8.30715L19.1348 7.75011L21.2768 5.61139L22.3866 6.72126L20.2446 8.85997Z"/>
<path d="M10.2474 16.0018C9.9058 15.6602 9.35194 15.6602 9.01035 16.0018L7.26089 17.7514C6.9193 18.093 6.9193 18.6469 7.26089 18.9885C7.60249 19.3301 8.15635 19.3301 8.49794 18.9885L10.2474 17.2389C10.589 16.8973 10.589 16.3434 10.2474 16.0018Z" />
<path d="M10.7598 17.7513L9.01034 19.5009C8.66875 19.8425 8.66875 20.3964 9.01034 20.738C9.35194 21.0796 9.9058 21.0796 10.2474 20.738L11.9968 18.9884C12.3384 18.6468 12.3384 18.0929 11.9968 17.7513C11.6553 17.4097 11.1014 17.4097 10.7598 17.7513Z" />
</svg>
