<svg width="28" height="28" viewBox="0 0 28 28" xmlns="http://www.w3.org/2000/svg">
<path d="M20.5589 3.5H7.43975C5.26349 3.5 3.49982 5.26375 3.49982 7.44013V19.25V21V22.4621C3.49982 23.5876 4.41217 24.5 5.53758 24.5H22.461C23.5865 24.5 24.4988 23.5876 24.4988 22.4621V21V19.25V7.44013C24.4988 5.26375 22.7351 3.5 20.5589 3.5ZM22.7489 22.4621C22.7489 22.6212 22.62 22.75 22.461 22.75H5.53758C5.37857 22.75 5.2497 22.6212 5.2497 22.4621V21H22.7489V22.4621ZM5.24975 19.25V7.44013C5.24975 6.23025 6.22993 5.25001 7.43975 5.25001H20.5589C21.7687 5.25001 22.7489 6.23025 22.7489 7.44013V19.25H5.24975Z" />
<path d="M20.124 7.87503C20.124 7.39178 19.7323 7.00004 19.2491 7.00004C18.7658 7.00004 18.3741 7.39178 18.3741 7.87503C18.3741 9.16755 17.5617 10.2868 16.3973 10.7197C15.7421 8.56696 13.7411 7 11.3744 7C8.47547 7 6.12469 9.35089 6.12469 12.25C6.12469 15.1491 8.47547 17.5 11.3744 17.5C14.1942 17.5 16.4949 15.2758 16.6186 12.4865C18.6599 11.9213 20.124 10.054 20.124 7.87503ZM11.3744 15.75C9.44192 15.75 7.87462 14.1827 7.87462 12.25C7.87462 10.3174 9.44192 8.75001 11.3744 8.75001C12.8689 8.75001 14.1441 9.68763 14.6459 11.0063L11.2779 11.3804C10.7976 11.4337 10.4515 11.8663 10.5048 12.3466C10.5582 12.8269 10.9908 13.1731 11.471 13.1197L14.8387 12.7456C14.5978 14.4435 13.1387 15.75 11.3744 15.75Z" />
<path d="M20.124 13.125H18.3741C17.8909 13.125 17.4991 13.5167 17.4991 14C17.4991 14.4832 17.8909 14.875 18.3741 14.875H20.124C20.6072 14.875 20.999 14.4832 20.999 14C20.999 13.5167 20.6072 13.125 20.124 13.125Z" />
<path d="M20.124 16.625H18.3741C17.8909 16.625 17.4991 17.0167 17.4991 17.5C17.4991 17.9832 17.8909 18.375 18.3741 18.375H20.124C20.6072 18.375 20.999 17.9832 20.999 17.5C20.999 17.0167 20.6072 16.625 20.124 16.625Z" />
</svg>
