<svg width="28" height="28" viewBox="0 0 28 28" xmlns="http://www.w3.org/2000/svg">
<path d="M19.2489 17.2085C19.2489 14.6075 17.3567 12.4482 14.8741 12.0315V10.2085H15.7491C16.2323 10.2085 16.624 9.81673 16.624 9.33348C16.624 8.85024 16.2323 8.4585 15.7491 8.4585H12.2493C11.766 8.4585 11.3743 8.85024 11.3743 9.33348C11.3743 9.81673 11.766 10.2085 12.2493 10.2085H13.1242V12.0315C10.6416 12.4482 8.74939 14.6075 8.74939 17.2085C8.74939 18.659 9.33785 19.9723 10.289 20.9225L9.71674 22.0672C9.50064 22.4994 9.67581 23.025 10.1081 23.2411C10.5403 23.4572 11.0658 23.2821 11.2819 22.8498L11.734 21.9457C12.4198 22.2743 13.188 22.4585 13.9992 22.4585C14.8104 22.4585 15.5786 22.2744 16.2645 21.9457L16.7165 22.8498C16.9326 23.282 17.4582 23.4572 17.8904 23.2411C18.3226 23.025 18.4978 22.4994 18.2817 22.0672L17.7094 20.9225C18.6604 19.9723 19.2489 18.659 19.2489 17.2085ZM10.4994 17.2085C10.4994 15.2759 12.0667 13.7085 13.9992 13.7085C15.9317 13.7085 17.499 15.2759 17.499 17.2085C17.499 19.1411 15.9317 20.7085 13.9992 20.7085C12.0667 20.7085 10.4994 19.1411 10.4994 17.2085Z" />
<path d="M12.2493 7.58349H15.7491C16.2323 7.58349 16.6241 7.19175 16.6241 6.7085C16.6241 6.22525 16.2323 5.83351 15.7491 5.83351H14.8742V4.95848C14.8742 4.47524 14.4825 4.0835 13.9992 4.0835C13.516 4.0835 13.1243 4.47524 13.1243 4.95848V5.83347H12.2493C11.7661 5.83347 11.3744 6.22521 11.3744 6.70846C11.3743 7.19175 11.7661 7.58349 12.2493 7.58349Z" />
<path d="M8.74957 6.70848C8.74957 6.22524 8.35785 5.8335 7.87463 5.8335H4.37476C3.89154 5.8335 3.49982 6.22524 3.49982 6.70848V9.33349C3.49982 9.81674 3.89154 10.2085 4.37476 10.2085H5.24963V21.2211L4.63098 21.8398C4.28929 22.1815 4.28929 22.7355 4.63098 23.0772C4.97266 23.4189 5.52667 23.4189 5.86836 23.0772L6.12461 22.821L6.38087 23.0772C6.72255 23.4189 7.27657 23.4189 7.61825 23.0772C7.95994 22.7355 7.95994 22.1815 7.61825 21.8398L6.99956 21.2211V10.2085H7.87459C8.35781 10.2085 8.74953 9.81674 8.74953 9.33349V6.70848H8.74957ZM6.99964 8.4585H5.24975V7.58351H6.99968V8.4585H6.99964Z" />
<path d="M23.6239 5.8335H20.1241C19.6409 5.8335 19.2491 6.22524 19.2491 6.70848V9.33349C19.2491 9.81674 19.6409 10.2085 20.1241 10.2085H20.999V21.2211L20.3803 21.8398C20.0386 22.1815 20.0386 22.7355 20.3803 23.0772C20.7219 23.4189 21.276 23.4189 21.6176 23.0772L21.8739 22.821L22.1302 23.0772C22.4718 23.4189 23.0259 23.4189 23.3675 23.0772C23.7092 22.7355 23.7092 22.1815 23.3675 21.8398L22.7488 21.2211V10.2085H23.6239C24.1071 10.2085 24.4988 9.81674 24.4988 9.33349V6.70848C24.4989 6.22524 24.1071 5.8335 23.6239 5.8335ZM22.7489 8.4585H20.999V7.58351H22.7489V8.4585Z" />
</svg>
