<svg width="12" height="8" viewBox="0 0 12 8" xmlns="http://www.w3.org/2000/svg">
<path d="M9.2597 0C8.0597 0 7.18209 0.541484 6.66269 1.37991C6.25075 0.524017 5.40895 0 4.26269 0C3.13433 0 2.25672 0.524017 1.7194 1.44978L1.32537 0.209607H0V8H1.95224V3.82533C1.95224 2.77729 2.50746 1.71179 3.72537 1.71179C4.60298 1.71179 5.03284 2.37555 5.03284 3.17904V8H6.96716V3.82533C6.96716 2.77729 7.52239 1.71179 8.75821 1.71179C9.54627 1.71179 10.0478 2.25327 10.0478 3.19651V8H12V2.9869C12 1.15284 11.0149 0 9.2597 0Z" />
</svg>
