<svg width="28" height="28" viewBox="0 0 28 28" xmlns="http://www.w3.org/2000/svg">
<path d="M24.4988 9.89125C24.4988 9.387 24.09 8.9782 23.5858 8.9782H17.4392C17.7546 8.43229 18.3441 8.06516 19.0208 8.06516C21.0387 8.06516 22.6727 6.43107 22.6727 4.41304C22.6727 3.9088 22.264 3.5 21.7598 3.5C21.2555 3.5 20.8468 3.9088 20.8468 4.41304C20.8468 5.42259 20.0303 6.23912 19.0208 6.23912C17.3181 6.23912 15.8888 7.40248 15.4837 8.97825H4.41298C3.90876 8.97825 3.49998 9.387 3.49998 9.89129V16.2825H3.49982V22.8409C3.49982 23.7569 4.24273 24.4999 5.15872 24.4999H22.8397C23.7557 24.4999 24.4986 23.7569 24.4986 22.8409V17.2028C24.4986 17.2003 24.4988 17.198 24.4988 17.1955V9.89125H24.4988ZM5.32597 10.8043H22.6728V16.2825H5.32597V10.8043ZM22.6726 22.6737H5.32581V18.1086H6.23889V20.8477C6.23889 21.3519 6.64767 21.7607 7.15189 21.7607C7.6561 21.7607 8.06488 21.3519 8.06488 20.8477V18.1086H8.97788V20.8477C8.97788 21.3519 9.38662 21.7607 9.89088 21.7607C10.3951 21.7607 10.8039 21.3519 10.8039 20.8477V18.1086H11.7169V20.8477C11.7169 21.3519 12.1256 21.7607 12.6299 21.7607C13.1341 21.7607 13.5429 21.3519 13.5429 20.8477V18.1086H14.4559V20.8477C14.4559 21.3519 14.8646 21.7607 15.3689 21.7607C15.8731 21.7607 16.2819 21.3519 16.2819 20.8477V18.1086H17.1948V20.8477C17.1948 21.3519 17.6036 21.7607 18.1078 21.7607C18.6121 21.7607 19.0208 21.3519 19.0208 20.8477V18.1086H19.9338V20.8477C19.9338 21.3519 20.3426 21.7607 20.8468 21.7607C21.3511 21.7607 21.7598 21.3519 21.7598 20.8477V18.1086H22.6727V22.6737H22.6726Z" />
<path d="M8.06491 14.4565H8.97791C9.48213 14.4565 9.89091 14.0477 9.89091 13.5434C9.89091 13.0392 9.48213 12.6304 8.97791 12.6304H8.06491C7.5607 12.6304 7.15192 13.0392 7.15192 13.5434C7.15192 14.0477 7.56066 14.4565 8.06491 14.4565Z" />
<path d="M11.7168 14.4565H12.6298C13.134 14.4565 13.5428 14.0477 13.5428 13.5434C13.5428 13.0392 13.134 12.6304 12.6298 12.6304H11.7168C11.2126 12.6304 10.8038 13.0392 10.8038 13.5434C10.8038 14.0477 11.2126 14.4565 11.7168 14.4565Z" />
<path d="M15.3688 14.4565H16.2818C16.786 14.4565 17.1948 14.0477 17.1948 13.5434C17.1948 13.0392 16.7861 12.6304 16.2818 12.6304H15.3688C14.8646 12.6304 14.4558 13.0392 14.4558 13.5434C14.4558 14.0477 14.8645 14.4565 15.3688 14.4565Z" />
<path d="M19.0208 14.4565H19.9338C20.438 14.4565 20.8468 14.0477 20.8468 13.5434C20.8468 13.0392 20.438 12.6304 19.9338 12.6304H19.0208C18.5166 12.6304 18.1078 13.0392 18.1078 13.5434C18.1078 14.0477 18.5166 14.4565 19.0208 14.4565Z" />
</svg>
