<svg width="6" height="10" viewBox="0 0 6 10" fill="none" xmlns="http://www.w3.org/2000/svg">
<path d="M3.07101 10C4.81065 10 6 8.87689 6 7.08423C6 5.48596 5.00592 4.68682 3.6213 4.06047C2.76923 3.6933 2.18343 3.32613 2.18343 2.69978C2.18343 2.09503 2.69822 1.87905 3.30177 1.87905C3.83432 1.87905 4.47337 2.07343 5.05917 2.4406L5.73373 0.86393C4.88166 0.259179 4.04734 0 3.14201 0C1.63314 0 0.337278 0.928725 0.337278 2.69978C0.337278 4.27646 1.31361 5.07559 2.57396 5.65875C3.35503 6.02592 4.10059 6.37149 4.10059 7.08423C4.10059 7.68898 3.63905 8.07775 2.92899 8.07775C2.18343 8.07775 1.43787 7.79698 0.763314 7.27862L0 8.94168C0.923077 9.65443 1.89941 10 3.07101 10Z" fill="white"/>
</svg>
