<svg width="49" height="48" viewBox="0 0 49 48" fill="none" xmlns="http://www.w3.org/2000/svg">
<path d="M40.5 6H22.5001C21.6717 6 21.0001 6.67155 21.0001 7.49997V27.1887C18.4113 27.8541 16.5 30.2025 16.5 32.9999V35.9999C16.5 36.8215 15.8216 37.4999 15 37.4999C14.1784 37.4999 13.5001 36.8215 13.5001 35.9999V31.243C15.2479 30.6254 16.5001 28.9597 16.5001 27V18C16.5001 17.8419 16.4753 17.6896 16.4299 17.5465C17.405 16.4796 18 15.0595 18 13.5C18 10.1861 15.314 7.50004 12.0001 7.50004C8.68607 7.49997 6 10.186 6 13.5C6 15.0595 6.59505 16.4796 7.57014 17.5465C7.52479 17.6896 7.49997 17.8419 7.49997 18V27C7.49997 28.9597 8.75209 30.6254 10.5 31.243V35.9999C10.5 38.4784 12.5215 40.4999 15 40.4999C17.4784 40.4999 19.5 38.4784 19.5 35.9999V32.9999C19.5 31.8881 20.1032 30.9197 21.0001 30.4014V40.4999C21.0001 41.3283 21.6716 41.9999 22.5 41.9999H40.5C41.3284 41.9999 41.9999 41.3283 41.9999 40.4999V7.49997C42 6.67155 41.3285 6 40.5 6ZM13.5 27C13.5 27.829 12.8291 28.4999 12 28.4999C11.171 28.4999 10.5001 27.829 10.5001 27V19.5H13.5001V27H13.5ZM12 10.5C13.657 10.5 15 11.8429 15 13.5C15 15.1571 13.6571 16.5 12 16.5C10.3429 16.5 8.99994 15.1571 8.99994 13.5C8.99994 11.8429 10.3429 10.5 12 10.5ZM39.0001 38.9999H24.0001V9.00001H39V38.9999H39.0001Z" fill="#333333"/>
<path d="M31.4999 20.9989C33.9858 20.9989 35.9999 18.9848 35.9999 16.4989C35.9999 14.0131 33.9858 11.999 31.4999 11.999C29.014 11.999 26.9999 14.0131 26.9999 16.4989C26.9999 18.9848 29.014 20.9989 31.4999 20.9989ZM31.4999 14.999C32.329 14.999 32.9999 15.6699 32.9999 16.4989C32.9999 17.328 32.329 17.9989 31.4999 17.9989C30.6709 17.9989 30 17.328 30 16.4989C30 15.6699 30.6708 14.999 31.4999 14.999Z" fill="#333333"/>
<path d="M31.4999 35.9989C33.9858 35.9989 35.9999 33.9848 35.9999 31.4989C35.9999 29.013 33.9858 26.9989 31.4999 26.9989C29.014 26.9989 26.9999 29.013 26.9999 31.4989C26.9999 33.9848 29.014 35.9989 31.4999 35.9989ZM31.4999 29.9988C32.329 29.9988 32.9999 30.6698 32.9999 31.4988C32.9999 32.3279 32.329 32.9988 31.4999 32.9988C30.6709 32.9988 30 32.3279 30 31.4988C30 30.6698 30.6708 29.9988 31.4999 29.9988Z" fill="#333333"/>
</svg>
